<svg id="Layer_1" data-name="Layer 1" xmlns="http://www.w3.org/2000/svg" viewBox="0 0 512 512"><defs><style>.cls-1{fill:#141f38;}</style></defs><title>checklist-glyph</title><path class="cls-1" d="M396.8,38.4H339.15A32,32,0,0,0,313.6,25.6H292.21a38.4,38.4,0,0,0-72.41,0H198.4a32,32,0,0,0-25.55,12.8H115.2a64.19,64.19,0,0,0-64,64V448a64.19,64.19,0,0,0,64,64H396.8a64.19,64.19,0,0,0,64-64V102.4A64.19,64.19,0,0,0,396.8,38.4ZM256,25.6a12.8,12.8,0,1,1-12.8,12.8A12.81,12.81,0,0,1,256,25.6ZM219.79,51.2a38.4,38.4,0,0,0,72.41,0H313.6a6.49,6.49,0,0,1,6.4,6.4V96a6.49,6.49,0,0,1-6.4,6.4H198.4A6.49,6.49,0,0,1,192,96V57.6a6.49,6.49,0,0,1,6.4-6.4Zm-4.34,327.1-25.6,38.4A12.8,12.8,0,0,1,173.47,421l-25.6-12.8a12.8,12.8,0,0,1,11.45-22.9l15.49,7.75,19.33-29a12.8,12.8,0,1,1,21.3,14.2Zm0-89.6-25.6,38.4a12.8,12.8,0,0,1-16.37,4.35l-25.6-12.8a12.8,12.8,0,0,1,11.45-22.9l15.49,7.75,19.33-29a12.8,12.8,0,1,1,21.3,14.2Zm0-89.6-25.6,38.4a12.8,12.8,0,0,1-16.37,4.35L147.88,229a12.8,12.8,0,0,1,11.45-22.9l15.49,7.75,19.33-29a12.8,12.8,0,1,1,21.3,14.2Zm143,210.5H256a12.8,12.8,0,1,1,0-25.6H358.4a12.8,12.8,0,1,1,0,25.6Zm0-89.6H256a12.8,12.8,0,0,1,0-25.6H358.4a12.8,12.8,0,0,1,0,25.6Zm0-89.6H256a12.8,12.8,0,0,1,0-25.6H358.4a12.8,12.8,0,0,1,0,25.6Z"/></svg>